<svg aria-hidden="true" style="position: absolute; width: 0; height: 0; overflow: hidden;" version="1.1" xmlns="http://www.w3.org/2000/svg" xmlns:xlink="http://www.w3.org/1999/xlink">
<defs>
<symbol id="icon-heart" viewBox="0 0 32 32">
<path d="M23 2c-2.404 0-4.331 0.863-6.030 2.563-0.001 0.001-0.002 0.002-0.003 0.003h-0.001l-0.966 1.217-0.966-1.143c-0.001-0.001-0.002-0.002-0.003-0.003h-0.001c-1.7-1.701-3.626-2.637-6.030-2.637s-4.664 0.936-6.364 2.636c-1.699 1.7-2.636 3.96-2.636 6.364 0 2.402 0.935 4.662 2.633 6.361l11.947 12.047c0.375 0.379 0.887 0.592 1.42 0.592s1.045-0.213 1.42-0.592l11.946-12.047c1.698-1.699 2.634-3.958 2.634-6.361s-0.937-4.664-2.636-6.364c-1.7-1.7-3.96-2.636-6.364-2.636v0z"></path>
</symbol>
<symbol id="icon-star" viewBox="0 0 32 32">
<path d="M16 23l-9 6 4-10-9-6h10l4-10 4 10h10l-9 6 4 10z"></path>
</symbol>
<symbol id="icon-calendar" viewBox="0 0 34 32">
<path d="M34 30.5v-19c0-0.276-0.224-0.5-0.5-0.5s-0.5 0.224-0.5 0.5v19c0 0.276-0.224 0.5-0.5 0.5h-31c-0.276 0-0.5-0.224-0.5-0.5v-19c0-0.276-0.224-0.5-0.5-0.5s-0.5 0.224-0.5 0.5v19c0 0.827 0.673 1.5 1.5 1.5h31c0.827 0 1.5-0.673 1.5-1.5zM4.5 23c-0.276 0-0.5 0.224-0.5 0.5s0.224 0.5 0.5 0.5h1.5v3.5c0 0.276 0.224 0.5 0.5 0.5s0.5-0.224 0.5-0.5v-3.5h6v3.5c0 0.276 0.224 0.5 0.5 0.5s0.5-0.224 0.5-0.5v-3.5h6v3.5c0 0.276 0.224 0.5 0.5 0.5s0.5-0.224 0.5-0.5v-3.5h6v3.5c0 0.276 0.224 0.5 0.5 0.5s0.5-0.224 0.5-0.5v-3.5h1.5c0.276 0 0.5-0.224 0.5-0.5s-0.224-0.5-0.5-0.5h-1.5v-5h1.5c0.276 0 0.5-0.224 0.5-0.5s-0.224-0.5-0.5-0.5h-1.5v-4.5c0-0.276-0.224-0.5-0.5-0.5s-0.5 0.224-0.5 0.5v4.5h-6v-4.5c0-0.276-0.224-0.5-0.5-0.5s-0.5 0.224-0.5 0.5v4.5h-6v-4.5c0-0.276-0.224-0.5-0.5-0.5s-0.5 0.224-0.5 0.5v4.5h-6v-4.5c0-0.276-0.224-0.5-0.5-0.5s-0.5 0.224-0.5 0.5v4.5h-1.5c-0.276 0-0.5 0.224-0.5 0.5s0.224 0.5 0.5 0.5h1.5v5h-1.5zM27 18v5h-6v-5h6zM20 18v5h-6v-5h6zM7 18h6v5h-6v-5zM28.5 3h4.25c0.087 0 0.25 0 0.25 0.5v4.5h-32v-4.5c0-0.276 0.224-0.5 0.5-0.5h4c0.276 0 0.5-0.224 0.5-0.5s-0.224-0.5-0.5-0.5h-4c-0.827 0-1.5 0.673-1.5 1.5v5c0 0.276 0.224 0.5 0.5 0.5h33c0.276 0 0.5-0.224 0.5-0.5v-5c0-1.106-0.646-1.5-1.25-1.5h-4.25c-0.276 0-0.5 0.224-0.5 0.5s0.224 0.5 0.5 0.5zM22.5 3c0.276 0 0.5-0.224 0.5-0.5s-0.224-0.5-0.5-0.5h-11c-0.276 0-0.5 0.224-0.5 0.5s0.224 0.5 0.5 0.5h11zM9 4.5v-4c0-0.276-0.224-0.5-0.5-0.5s-0.5 0.224-0.5 0.5v4c0 0.276 0.224 0.5 0.5 0.5s0.5-0.224 0.5-0.5zM25.5 5c0.276 0 0.5-0.224 0.5-0.5v-4c0-0.276-0.224-0.5-0.5-0.5s-0.5 0.224-0.5 0.5v4c0 0.276 0.224 0.5 0.5 0.5z"></path>
</symbol>
<symbol id="icon-pricetags" viewBox="0 0 42 32">
<path d="M40.5 0h-10c-0.691 0-1.574 0.376-2.047 0.87l-1.33 1.34c-0.194 0.196-0.192 0.513 0.004 0.707 0.194 0.194 0.513 0.193 0.707-0.003l1.334-1.346c0.285-0.297 0.92-0.568 1.332-0.568h10c0.275 0 0.5 0.224 0.5 0.5v10.049c0 0.411-0.271 1.046-0.574 1.337l-14.081 13.972c-0.201 0.191-0.535 0.186-0.73-0.008l-2.648-2.649c-0.195-0.195-0.512-0.195-0.707 0s-0.195 0.512 0 0.707l2.648 2.649c0.294 0.293 0.684 0.441 1.074 0.441 0.382 0 0.765-0.141 1.062-0.424l14.082-13.973c0.498-0.478 0.874-1.361 0.874-2.052v-10.049c0-0.827-0.673-1.5-1.5-1.5zM39.038 5c0-1.103-0.897-2-2-2s-2 0.897-2 2 0.897 2 2 2 2-0.897 2-2zM36.038 5c0-0.551 0.448-1 1-1s1 0.449 1 1-0.448 1-1 1-1-0.449-1-1zM16.462 4c-0.691 0-1.574 0.376-2.048 0.87l-13.993 14.131c-0.568 0.592-0.56 1.547 0.021 2.128l10.428 10.428c0.285 0.286 0.667 0.443 1.076 0.443 0.396 0 0.77-0.149 1.059-0.426l14.081-13.972c0.499-0.478 0.876-1.361 0.876-2.053v-10.049c0-0.827-0.673-1.5-1.5-1.5h-10zM27 5.5v10.049c0 0.412-0.309 1.046-0.612 1.337l-14.081 13.972c-0.195 0.185-0.54 0.181-0.729-0.008l-10.429-10.427c-0.195-0.196-0.199-0.53-0.013-0.723l13.994-14.132c0.285-0.297 0.92-0.568 1.332-0.568h10c0.275 0 0.538 0.224 0.538 0.5zM23 7c-1.103 0-2 0.897-2 2s0.897 2 2 2 2-0.897 2-2-0.897-2-2-2zM23 10c-0.552 0-1-0.449-1-1s0.448-1 1-1 1 0.449 1 1-0.448 1-1 1z"></path>
</symbol>
<symbol id="icon-globe" viewBox="0 0 25 32">
<path d="M13.552 22c5.79 0 10.5-4.71 10.5-10.5s-4.71-10.5-10.5-10.5-10.5 4.71-10.5 10.5 4.71 10.5 10.5 10.5zM13.552 2c5.238 0 9.5 4.262 9.5 9.5s-4.262 9.5-9.5 9.5-9.5-4.262-9.5-9.5 4.261-9.5 9.5-9.5zM9.052 28c-1.141 0-2 0.859-2 2v1.5c0 0.276 0.224 0.5 0.5 0.5h12c0.276 0 0.5-0.224 0.5-0.5v-1.425c0-1.164-0.879-2.075-2-2.075h-9zM19.052 30.075v0.925h-11v-1c0-0.589 0.411-1 1-1h9c0.57 0 1 0.462 1 1.075zM13.055 24.978c0 0.006-0.003 0.010-0.003 0.016v1.604c0 0.276 0.224 0.5 0.5 0.5s0.5-0.224 0.5-0.5v-1.604c0-0.007-0.004-0.013-0.004-0.020 3.233-0.129 6.268-1.376 8.638-3.581l1.18 1.179c0.195 0.195 0.512 0.195 0.707 0s0.195-0.512 0-0.707l-1.526-1.526c-0.195-0.195-0.512-0.195-0.707 0-2.362 2.361-5.501 3.661-8.84 3.661s-6.478-1.3-8.839-3.661-3.661-5.5-3.661-8.839 1.3-6.478 3.661-8.839c0.195-0.195 0.195-0.512 0-0.707l-1.526-1.526c-0.195-0.195-0.512-0.195-0.707 0s-0.195 0.512 0 0.707l1.179 1.18c-2.331 2.503-3.607 5.747-3.607 9.185 0 3.605 1.404 6.996 3.954 9.546 2.444 2.444 5.663 3.821 9.101 3.932z"></path>
</symbol>
<symbol id="icon-hourglass" viewBox="0 0 21 32">
<path d="M21.021 0.5c0-0.276-0.224-0.5-0.5-0.5h-20.042c-0.276 0-0.5 0.224-0.5 0.5s0.223 0.5 0.5 0.5h20.043c0.276 0 0.499-0.224 0.499-0.5zM20 6.112v-3.612c0-0.276-0.224-0.5-0.5-0.5h-17.918c-0.276 0-0.5 0.224-0.5 0.5v3.612c0 4.976 3.808 8.35 6.014 9.886-2.529 1.742-6.096 5.057-6.096 9.89v3.612c0 0.276 0.224 0.5 0.5 0.5h18c0.276 0 0.5-0.224 0.5-0.5v-3.583c0-4.962-3.863-8.365-6.095-9.916 2.529-1.742 6.095-5.056 6.095-9.889zM10.5 24.19l4.81 4.81h-9.62l4.81-4.81zM12.732 15.578c-0.145 0.091-0.232 0.251-0.232 0.422s0.087 0.331 0.232 0.422c1.885 1.195 6.268 4.513 6.268 9.495v3.083h-2.288c-0.009-0.011-0.013-0.025-0.023-0.035l-5.689-5.689v-0.776c0-0.276-0.224-0.5-0.5-0.5s-0.5 0.224-0.5 0.5v0.776l-5.689 5.689c-0.010 0.010-0.014 0.024-0.023 0.035h-2.288v-3.112c0-4.777 3.927-7.981 6.268-9.465 0.145-0.092 0.232-0.252 0.232-0.423s-0.087-0.331-0.232-0.422c-1.86-1.18-6.268-4.463-6.268-9.466v-3.112h17v3.112c0 4.778-3.927 7.981-6.268 9.466zM15.541 8.972h-9.814c-0.179 0-0.345 0.096-0.434 0.251-0.089 0.156-0.088 0.347 0.002 0.502 1.187 2.021 2.92 3.258 4.755 4.569l0.159 0.113c0.087 0.062 0.188 0.093 0.291 0.093s0.204-0.031 0.291-0.093c0.262-0.187 0.526-0.371 0.79-0.555 1.639-1.144 3.334-2.326 4.391-4.127 0.091-0.154 0.092-0.346 0.003-0.501-0.090-0.156-0.255-0.252-0.434-0.252zM11.008 13.031c-0.169 0.118-0.338 0.236-0.507 0.355-1.505-1.075-2.835-2.042-3.846-3.415h7.943c-0.941 1.212-2.234 2.114-3.59 3.060zM0.479 32h20.043c0.276 0 0.5-0.224 0.5-0.5s-0.224-0.5-0.5-0.5h-20.043c-0.276 0-0.5 0.224-0.5 0.5s0.223 0.5 0.5 0.5zM10.5 19c-0.276 0-0.5 0.224-0.5 0.5v1c0 0.276 0.224 0.5 0.5 0.5s0.5-0.224 0.5-0.5v-1c0-0.276-0.224-0.5-0.5-0.5zM10.5 16c-0.276 0-0.5 0.224-0.5 0.5v1c0 0.276 0.224 0.5 0.5 0.5s0.5-0.224 0.5-0.5v-1c0-0.276-0.224-0.5-0.5-0.5z"></path>
</symbol>
</defs>
</svg>
